<svg id="Camada_1" data-name="Camada 1" xmlns="http://www.w3.org/2000/svg" viewBox="0 0 734.24 325.65"><defs><style>.cls-1{fill:#d91619;}.cls-2{fill:#dc1616;}.cls-3{fill:#da161a;}.cls-4{fill:#d91616;}.cls-5{fill:#d5181c;}.cls-6{fill:#e3e2e2;}.cls-7{fill:#db1617;}.cls-8{fill:#d8161a;}.cls-9{fill:#dc1619;}.cls-10{fill:#d4191f;}.cls-11{fill:#eae8e8;}.cls-12{fill:#da1619;}.cls-13{fill:#da1518;}</style></defs><path class="cls-1" d="M392.78,265.45l-5,3.62c-2.15,4.94-5.56,8.08-11.28,7.91l-219.8.22c-5.63,0-11.28.27-16.84-1-4.56-3.39-10.11-6.61-8.56-13.36,1.89-8.25,6.48-11,15.92-11.07,3.38,0,6.77-.18,10.16-.28,2.61-1,5.34-.49,8-.5q98.11,0,196.22-.05c2.66,0,5.39.52,8-.52A210.55,210.55,0,0,1,425.25,220c19.72-5.68,39.78-9.56,60.37-9.15,35.59.7,68.46,9.57,96.7,32.63,5.14,4.2,9.22,9.32,14.34,13.37,2.23,1.75,1.81,3.79,1.85,5.89.15,6.61.21,13.23.3,19.84,1.39,4.15-.87,6.61-4.18,8.21s-6.27.18-8.63-2.24c-3.76-3.85-7.47-7.77-11.17-11.69-21.25-22.55-48.09-32.52-78.19-36.5-10.19-1.35-20.4.53-30.4-1.85a96.06,96.06,0,0,0-34,7.23C419,252.12,406.07,259.16,392.78,265.45Z" transform="translate(-35.26 -210.84)"/><path class="cls-2" d="M45.72,364.09l319-.66c2.45,0,4.9-.11,7.34-.17,2.94,1.08,5.83,2.2,8.19,4.38,7.79,7.19,6.2,16.08-3.84,21.21-5.1.9-10.24.37-15.36.39-21.77.07-43.55-.16-65.32.08-21.4.24-42.75.31-64.19,1.83-26.73,1.91-53.71-.3-80.58-1.1-17.11-.51-34.2,1.27-51.32.66-2.37-.09-4.9.76-7.11-.85l-42.27-.24c-7.3-.05-14.07-4.39-14.8-9.47C34.32,371.91,37.45,367,45.72,364.09Z" transform="translate(-35.26 -210.84)"/><path class="cls-3" d="M389.76,417.6a259.18,259.18,0,0,1,20.07,23l-.47,2.48H270.6c-22.67,0-45.35-.25-68,.09-8.08.13-14.24-2.22-18.52-9.11-1.42-11.66,2.42-16.13,14-16.15Z" transform="translate(-35.26 -210.84)"/><path class="cls-4" d="M182.3,307.41c3.39,1.91,6.63,4,8.55,7.55,4.49,8.2-1.28,16.16-12.93,17.91-26.17-.07-52.34-.06-78.5-.26-10.4-.08-15.87-5.74-15.51-15.14.23-5.82,4.57-7.86,8.74-10.17C122.54,306.71,152.42,306.49,182.3,307.41Z" transform="translate(-35.26 -210.84)"/><path class="cls-5" d="M137.79,418.2c2.68,1.6,5.85,2.33,8,4.92,3.45,4.19,4.59,8.85,1.74,13.49A12.46,12.46,0,0,1,135.29,443c-9.48-.55-19,0-28.52-.2-8.84-.22-13.35-5.06-13.88-13.45-.48-7.47,5.1-8.88,10.11-11.06A119.3,119.3,0,0,1,137.79,418.2Z" transform="translate(-35.26 -210.84)"/><path class="cls-6" d="M137.79,418.2l-34.79.11" transform="translate(-35.26 -210.84)"/><path class="cls-6" d="M127.73,416.67" transform="translate(-35.26 -210.84)"/><path class="cls-7" d="M691.3,282.59a5,5,0,0,0-4.45-1.35c-.51.64-.93.58-1.24-.18-4.77-2.22-9.87-1.17-14.83-1.5l.11.1q-.28-13.57-.57-27.16c-.06-2.67.2-4.62,3.77-4.84,33.23-2,69.54,17.81,78.95,51.62,7.81,28,.85,52.28-22,71.2-.92.76-1.82,1.55-2.91,2.49,23.84,14.26,38.23,34.8,41,62.15,3.33,33.5-11.36,58.47-38.63,77.23a132.31,132.31,0,0,1-27.55,14.36A88.86,88.86,0,0,1,683.92,530c-13.1,1.18-26.23.46-39.35.47-16.28,0-32.58.6-48.85-.37-27.05-29.12-56.3-56-84.29-84.22-2.57-2.59-5.33-5-8-7.45l-39.07-39.23h41.51c3.1-.37,4.9,1.82,6.85,3.61,2.34,2.14,4.56,4.42,6.77,6.71,30.59,31.6,63.35,61,94,92.51,6.13,6.29,6.26,6.08,12.17-1,3.81-4.52,6.4-10.87,14-10.28,16.43.4,32.82-.6,49.22-.92,30.76-.6,50-30.82,39-61.32-7.2-20-22.06-31.42-43.11-34-17.89-2.2-18.52-2.51-18.52-20.69,0-20.2,0-20,20.18-20.66,26.82-.88,42.62-24.38,29.21-50.78a9.5,9.5,0,0,1-.94-3.51" transform="translate(-35.26 -210.84)"/><path class="cls-8" d="M469.2,535.81c-32.47-1.21-59.69-16.27-86.4-32.71-2.15-1.84-4.71-.89-7.06-.89q-52.92-.09-105.84-.07c-2.92,0-6,.18-8.72-.75-6.23-2.18-10.44-6.6-10.71-13.5s3.82-10.71,10.21-12.38c42.07,0,84.13.12,126.2,0a18.79,18.79,0,0,1,12.1,3.8c14.58,10.81,30,20,48.13,23.89a111.77,111.77,0,0,0,71.35-1.37c7.79-2.73,13.58-3.25,19.13,3.29,1.72,2,4,3.52,6.07,5.28,8.59,7.44,8.48,8.24-2.1,13.32-14.08,6.76-29,10.34-44.48,12.11A147.55,147.55,0,0,1,469.2,535.81Z" transform="translate(-35.26 -210.84)"/><path class="cls-9" d="M648.56,235.56c-.09,20.58-.27,41.15-.26,61.72,0,27.7,0,55.39.3,83.08.19,19.72-1.56,39.13-7.85,58-2.09,14.74-9.12,27.1-18.63,38.22a7.55,7.55,0,0,1-6.51,2.83c-9.77-.86-18-18-12.32-26.16A133.57,133.57,0,0,0,622,416c6.44-20.58,4.7-41.08.2-61.63a11.78,11.78,0,0,0-1.75-3.24c-3.93-7-6.63-14.22-3.2-22.32a9.07,9.07,0,0,0,.29-3.65c-.81-28.42,1.15-56.79,1.75-85.18.11-5.29-2.41-10.6.07-15.86,3.27-8.68,9.47-12.9,16.9-11.51,8.05,1.5,11.74,6.64,11.89,16.47C648.2,231.21,648.42,233.39,648.56,235.56Z" transform="translate(-35.26 -210.84)"/><path class="cls-10" d="M193.22,490.46c-3.89-.23-5.8-2.73-5.85-6.19s2.13-6,6-5.9c4.06.1,6.41,2.63,6.3,6.54C199.52,488.63,196.9,490.38,193.22,490.46Z" transform="translate(-35.26 -210.84)"/><path class="cls-11" d="M691.3,282.59" transform="translate(-35.26 -210.84)"/><path class="cls-11" d="M670.78,279.56" transform="translate(-35.26 -210.84)"/><path class="cls-12" d="M576.71,374.71l-.3-3.82c-2.69-36.06-34.37-70.8-72.48-79.47a112.71,112.71,0,0,0-50.24.12c-1.91.43-3.81.94-5.74,1.26-9.26,1.51-15.81-1.75-17.83-8.83-1.92-6.74,1.62-11.45,11.33-15.09.91-.34,1.8-.77,2.7-1.15a174.62,174.62,0,0,1,53-4.45c32.38,4.21,59.64,17.81,80.29,43.66,7.69,9.63,12.94,20.63,18.23,31.62,9.82,30.74,9,61-3.82,90.83-7.07,16.43-13.76,17.29-24.74,3.08-.93-1.21-.41-1.9.16-3.1,5-10.48,7.62-21.67,9.43-33.07A82.13,82.13,0,0,0,576.71,374.71Z" transform="translate(-35.26 -210.84)"/><path class="cls-13" d="M384.15,304c3.36.16,6.85-.2,9.56,2.47l4.88,2.31c9.82,10.59,6.84,20.34-7.37,24.15q-72.77,0-145.54-.08c-5.75,0-11.19-.51-15.79-4.56-4.25-3.75-6.48-8.2-4.59-13.69s6.16-7.62,12-7.59c26.46.13,52.92,0,79.38,0,2.92,0,5.84-.35,8.75-.54,9-2.52,18.25-.55,27.39-1.43" transform="translate(-35.26 -210.84)"/><path class="cls-11" d="M303.19,304.75" transform="translate(-35.26 -210.84)"/><path class="cls-11" d="M275.73,306.4c0-.57,0-1.14,0-1.71" transform="translate(-35.26 -210.84)"/><path class="cls-11" d="M325.48,306.4" transform="translate(-35.26 -210.84)"/><path class="cls-11" d="M393.71,306.43" transform="translate(-35.26 -210.84)"/><path class="cls-11" d="M396.9,265.71a3.49,3.49,0,0,1-4.12-.26" transform="translate(-35.26 -210.84)"/><path class="cls-11" d="M432.22,245.76c-1.69,4.31-6.42,4.18-9.58,6.34" transform="translate(-35.26 -210.84)"/><path class="cls-6" d="M601.3,531.31c-1.95,0-3.94.12-5.58-1.26" transform="translate(-35.26 -210.84)"/><path class="cls-6" d="M683.92,530c-1.64,1.39-3.62,1.3-5.58,1.3" transform="translate(-35.26 -210.84)"/><path class="cls-6" d="M497.08,535.85" transform="translate(-35.26 -210.84)"/><path class="cls-6" d="M469.2,535.81" transform="translate(-35.26 -210.84)"/><path class="cls-11" d="M576.69,396.3q0-10.8,0-21.59" transform="translate(-35.26 -210.84)"/></svg>